HIERARCHY
ROOT Hips
{
	OFFSET 0.000000 0.000000 0.000000
	CHANNELS 6 Xposition Yposition Zposition Xrotation Yrotation Zrotation
	JOINT LeftUpLeg_virtual
	{
		OFFSET 0.000000 0.000000 0.000000
		CHANNELS 3 Xrotation Yrotation Zrotation
		JOINT LeftUpLeg
		{
			OFFSET 11.394100 -6.187798 -0.413800
			CHANNELS 3 Xrotation Yrotation Zrotation
			JOINT LeftLeg
			{
				OFFSET 0.430247 -32.302673 3.732800
				CHANNELS 3 Xrotation Yrotation Zrotation
				JOINT LeftFoot
				{
					OFFSET -0.430247 -48.264931 -6.423300
					CHANNELS 3 Xrotation Yrotation Zrotation
					JOINT LeftToeBase
					{
						OFFSET 4.230900 -16.068199 23.438400
						CHANNELS 3 Xrotation Yrotation Zrotation
						JOINT LeftToe_End
						{
							OFFSET 4.510700 0.695400 19.974600
							CHANNELS 3 Xrotation Yrotation Zrotation
							End Site
							{
								OFFSET 0 0 0
							}
						}
					}
				}
			}
		}
	}
	JOINT RightUpLeg_virtual
	{
		OFFSET 0.000000 0.000000 0.000000
		CHANNELS 3 Xrotation Yrotation Zrotation
		JOINT RightUpLeg
		{
			OFFSET -11.333700 -6.187798 -0.413800
			CHANNELS 3 Xrotation Yrotation Zrotation
			JOINT RightLeg
			{
				OFFSET -0.430392 -32.302628 3.733000
				CHANNELS 3 Xrotation Yrotation Zrotation
				JOINT RightFoot
				{
					OFFSET 0.430392 -48.264973 -6.423500
					CHANNELS 3 Xrotation Yrotation Zrotation
					JOINT RightToeBase
					{
						OFFSET -4.230900 -16.068199 23.438400
						CHANNELS 3 Xrotation Yrotation Zrotation
						JOINT RightToe_End
						{
							OFFSET -4.510700 0.695400 19.974600
							CHANNELS 3 Xrotation Yrotation Zrotation
							End Site
							{
								OFFSET 0 0 0
							}
						}
					}
				}
			}
		}
	}
	JOINT Spine_virtual
	{
		OFFSET 0.000000 0.000000 0.000000
		CHANNELS 3 Xrotation Yrotation Zrotation
		JOINT Spine
		{
			OFFSET -0.002400 12.777504 0.315300
			CHANNELS 3 Xrotation Yrotation Zrotation
			JOINT Spine1
			{
				OFFSET -0.002067 5.816869 0.032633
				CHANNELS 3 Xrotation Yrotation Zrotation
				JOINT Spine1_split
				{
					OFFSET -0.002067 5.816869 0.032633
					CHANNELS 3 Xrotation Yrotation Zrotation
					JOINT Spine2
					{
						OFFSET -0.002067 5.816869 0.032633
						CHANNELS 3 Xrotation Yrotation Zrotation
						JOINT Neck_virtual
						{
							OFFSET 0.000000 0.000000 0.000000
							CHANNELS 3 Xrotation Yrotation Zrotation
							JOINT Neck
							{
								OFFSET -0.003700 21.199493 -0.826900
								CHANNELS 3 Xrotation Yrotation Zrotation
								JOINT Head
								{
									OFFSET 0.000000 20.442200 4.834800
									CHANNELS 3 Xrotation Yrotation Zrotation
									JOINT HeadTop_End
									{
										OFFSET 0.000000 34.668396 4.968400
										CHANNELS 3 Xrotation Yrotation Zrotation
										End Site
										{
											OFFSET 0 0 0
										}
									}
								}
							}
						}
						JOINT LeftShoulder_virtual
						{
							OFFSET 0.000000 0.000000 0.000000
							CHANNELS 3 Xrotation Yrotation Zrotation
							JOINT LeftShoulder
							{
								OFFSET 3.288150 8.794197 -1.372250
								CHANNELS 3 Xrotation Yrotation Zrotation
								JOINT LeftShoulder_split
								{
									OFFSET 3.288150 8.794197 -1.372250
									CHANNELS 3 Xrotation Yrotation Zrotation
									JOINT LeftArm
									{
										OFFSET 11.953299 -2.279007 -0.146200
										CHANNELS 3 Xrotation Yrotation Zrotation
										JOINT LeftForeArm
										{
											OFFSET 18.448900 0.000000 0.000000
											CHANNELS 3 Xrotation Yrotation Zrotation
											JOINT LeftHand
											{
												OFFSET 29.527798 0.000000 0.000000
												CHANNELS 3 Xrotation Yrotation Zrotation
												End Site
												{
													OFFSET 0 0 0
												}
											}
										}
									}
								}
							}
						}
						JOINT RightShoulder_virtual
						{
							OFFSET 0.000000 0.000000 0.000000
							CHANNELS 3 Xrotation Yrotation Zrotation
							JOINT RightShoulder
							{
								OFFSET -3.249400 8.794197 -1.372250
								CHANNELS 3 Xrotation Yrotation Zrotation
								JOINT RightShoulder_split
								{
									OFFSET -3.249400 8.794197 -1.372250
									CHANNELS 3 Xrotation Yrotation Zrotation
									JOINT RightArm
									{
										OFFSET -11.953299 -2.279007 -0.146200
										CHANNELS 3 Xrotation Yrotation Zrotation
										JOINT RightForeArm
										{
											OFFSET -18.448900 0.000000 0.000000
											CHANNELS 3 Xrotation Yrotation Zrotation
											JOINT RightHand
											{
												OFFSET -29.527802 0.000000 0.000000
												CHANNELS 3 Xrotation Yrotation Zrotation
												End Site
												{
													OFFSET 0 0 0
												}
											}
										}
									}
								}
							}
						}
					}
				}
			}
		}
	}
}
MOTION
Frames: 9
Frame Time: 0.03333333
3.012379 82.423805 16.594702 0.000000 0.000000 0.000000 -0.188668 -36.145272 -2.926586 -47.566964 -0.585562 21.243475 63.714402 4.245923 -0.184823 -15.823293 -9.529787 -8.669313 -3.734826 -0.260950 2.522154 0.000000 0.000000 0.000000 -0.696455 -30.634491 -2.798767 -13.550204 -14.890183 -24.770634 53.269086 -3.596975 -11.209500 -11.184042 -9.614027 26.588910 -18.611231 0.761151 5.559407 0.000000 0.000000 0.000000 -0.953464 -30.307858 -3.234115 12.335871 9.283119 -4.230120 1.908840 2.087098 -2.011308 0.972014 -0.502827 0.914579 0.000000 0.000000 0.000000 3.812339 1.368971 -1.404794 -10.981950 9.967999 6.168373 0.674422 8.843924 -1.004603 0.000000 0.000000 0.000000 2.715958 1.885550 -1.604460 0.693897 0.165718 -5.503197 -1.989340 -2.942112 -0.210590 -59.364118 2.354823 -46.228725 -179.282070 -73.483082 -178.466190 0.000000 0.000000 0.000000 2.876004 1.394791 -1.780591 3.537742 22.315596 -4.684712 -8.075836 -3.607672 2.187582 -42.295810 17.882310 48.812654 -178.481750 62.281749 177.538446 0.000000 0.000000 0.000000 
3.023246 81.794228 14.525703 0.000000 0.000000 0.000000 -1.693072 -39.466848 -3.098141 -46.936971 -0.304832 22.778220 64.165529 4.421303 -0.571442 -14.285365 -8.207084 -9.367058 -4.142386 -0.275903 2.671060 0.000000 0.000000 0.000000 -2.312234 -33.774459 -2.912291 -15.120785 -14.698857 -26.143186 56.024347 -5.814499 -10.259025 -16.423835 -12.104407 26.524603 -12.612796 1.313807 2.527705 0.000000 0.000000 0.000000 -2.616572 -33.444055 -3.318325 12.684895 8.937326 -3.434421 2.053358 1.980678 -1.855747 0.923922 -0.369192 1.040027 0.000000 0.000000 0.000000 3.799705 1.313583 -1.261836 -10.506397 10.678643 5.708261 1.589295 11.393407 -2.042202 0.000000 0.000000 0.000000 2.903559 1.783379 -1.430874 0.803488 0.225357 -5.354676 -1.608403 -2.928237 -0.271566 -60.333793 3.237928 -46.380697 -179.531645 -73.512021 -178.952281 0.000000 0.000000 0.000000 2.952307 1.277850 -1.634960 3.647271 21.962414 -5.137217 -7.521654 -2.978123 2.316846 -44.732647 18.140380 52.587245 -177.653876 62.898816 176.701229 0.000000 0.000000 0.000000 
2.886155 81.265625 12.351006 0.000000 0.000000 0.000000 -3.030604 -42.007617 -3.178438 -46.489116 -0.362755 24.079555 63.924109 4.235921 -0.790330 -12.095667 -7.369423 -10.304808 -4.338330 -0.243889 2.770130 0.000000 0.000000 0.000000 -3.913359 -36.439834 -2.909925 -16.673287 -14.028761 -27.498642 58.001092 -7.205314 -9.396984 -19.956380 -13.339550 27.306972 -9.275458 1.471210 0.270961 0.000000 0.000000 0.000000 -3.980613 -35.962039 -3.227169 12.871051 8.601917 -2.659451 2.185988 1.847146 -1.660905 0.937299 -0.299104 1.076721 0.000000 0.000000 0.000000 3.737433 1.247783 -1.089197 -9.899129 11.219868 5.075452 2.475706 13.322611 -2.968113 0.000000 0.000000 0.000000 3.117741 1.653278 -1.241428 0.927979 0.329677 -5.534702 -1.363975 -2.788870 -0.398297 -60.712151 3.906003 -46.592791 -179.814538 -74.121971 -179.410860 0.000000 0.000000 0.000000 3.109090 1.165907 -1.444595 3.698309 21.287418 -5.504430 -6.882801 -2.437210 2.393905 -47.175833 18.142388 56.450608 -177.332734 62.960950 176.328218 0.000000 0.000000 0.000000 
2.600281 80.926720 10.085152 0.000000 0.000000 0.000000 -4.085480 -43.758860 -3.125343 -46.134048 -0.657882 25.098775 62.914150 3.939934 -0.846521 -9.429821 -6.991864 -11.119076 -4.201441 -0.167829 2.690115 0.000000 0.000000 0.000000 -5.337824 -38.468616 -2.813954 -17.939036 -13.038809 -28.570733 58.578585 -7.781650 -8.814168 -21.957296 -13.421377 28.823026 -7.907996 1.425200 -1.021281 0.000000 0.000000 0.000000 -4.967224 -37.801463 -2.969957 12.868496 8.254580 -1.933898 2.293705 1.681558 -1.434457 0.974687 -0.244411 1.067889 0.000000 0.000000 0.000000 3.649402 1.166875 -0.887530 -9.091601 11.624790 4.301488 3.314822 14.767142 -3.840445 0.000000 0.000000 0.000000 3.333460 1.496836 -1.041303 1.067001 0.453814 -6.009709 -1.287095 -2.577558 -0.528663 -60.493503 4.350339 -46.854760 179.905106 -75.041554 -179.776357 0.000000 0.000000 0.000000 3.325824 1.065854 -1.210384 3.712731 20.420563 -5.749602 -6.301111 -2.152372 2.323456 -49.470503 18.053769 60.085447 -177.473860 63.173758 176.384485 0.000000 0.000000 0.000000 
2.275498 80.876465 7.868591 0.000000 0.000000 0.000000 -4.820548 -44.822181 -2.913338 -45.798153 -0.992468 25.771922 61.380711 3.718188 -0.765605 -6.590700 -6.966345 -11.471267 -3.758099 -0.051114 2.261271 0.000000 0.000000 0.000000 -6.485712 -39.882281 -2.636399 -18.554347 -12.216702 -29.131368 57.750431 -8.086937 -8.448089 -23.389703 -12.899594 29.524387 -6.524007 1.282205 -1.339890 0.000000 0.000000 0.000000 -5.530330 -39.143384 -2.529762 12.733682 7.913429 -1.286955 2.377429 1.509619 -1.203051 0.952665 -0.183876 0.976812 0.000000 0.000000 0.000000 3.554232 1.065128 -0.675756 -8.112246 11.941870 3.445176 4.093196 15.837153 -4.701787 0.000000 0.000000 0.000000 3.519884 1.331300 -0.845181 1.207941 0.595172 -6.653344 -1.332757 -2.482320 -0.595270 -59.675834 4.582355 -47.155254 179.626612 -75.859735 179.943082 0.000000 0.000000 0.000000 3.558529 0.978445 -0.966913 3.703084 19.494818 -5.896699 -5.726618 -2.035707 2.211230 -51.482735 18.176587 63.266717 -177.935444 63.890286 176.727839 0.000000 0.000000 0.000000 
1.913859 81.112190 5.690392 0.000000 0.000000 0.000000 -5.249240 -45.265262 -2.528249 -45.554268 -1.264716 25.966810 59.697602 3.602523 -0.508789 -4.014030 -7.238043 -11.346053 -3.249769 0.069270 1.533478 0.000000 0.000000 0.000000 -7.350782 -40.707275 -2.350012 -18.732328 -11.779763 -29.228869 56.110277 -8.519810 -8.094596 -24.708559 -12.193594 28.771834 -4.091968 1.136170 -0.887035 0.000000 0.000000 0.000000 -5.791887 -40.101427 -1.953743 12.539899 7.615493 -0.762764 2.426325 1.347719 -1.002479 0.811676 -0.098374 0.830878 0.000000 0.000000 0.000000 3.467711 0.965471 -0.491556 -6.986031 12.197120 2.608278 4.819556 16.626342 -5.552027 0.000000 0.000000 0.000000 3.653849 1.181113 -0.681417 1.341234 0.736520 -7.311948 -1.305075 -2.436525 -0.609132 -58.458230 4.613565 -47.503020 179.437156 -76.306122 179.809320 0.000000 0.000000 0.000000 3.770266 0.913030 -0.755449 3.705527 18.642385 -5.998099 -5.318519 -2.108454 2.106135 -53.150271 18.650583 65.969956 -178.530722 65.044212 177.203712 0.000000 0.000000 0.000000 
1.505468 81.501587 3.657394 0.000000 0.000000 0.000000 -5.576282 -45.302483 -2.005016 -45.418548 -1.328937 25.626822 58.333825 3.443214 -0.027431 -2.054240 -7.826469 -10.932974 -2.790266 0.141688 0.648427 0.000000 0.000000 0.000000 -7.944354 -41.051766 -1.917163 -18.857898 -11.677813 -29.113272 54.418535 -9.043782 -7.704692 -25.764638 -11.438393 27.142825 -1.909441 1.053348 -0.122161 0.000000 0.000000 0.000000 -5.879505 -40.720276 -1.253455 12.373013 7.394042 -0.408422 2.448379 1.219303 -0.863743 0.622079 -0.012414 0.660863 0.000000 0.000000 0.000000 3.410359 0.879714 -0.363504 -5.794234 12.404485 1.862650 5.547136 17.233544 -6.361752 0.000000 0.000000 0.000000 3.729568 1.065654 -0.577341 1.463529 0.868416 -7.863250 -1.218262 -2.447387 -0.656478 -57.167761 4.499559 -47.894127 179.326125 -76.316081 179.761700 0.000000 0.000000 0.000000 3.920188 0.870363 -0.607743 3.725181 17.942799 -6.126698 -5.014888 -2.206769 2.026477 -54.471954 19.439553 68.321016 -178.991992 66.275627 177.574482 0.000000 0.000000 0.000000 
1.115905 81.988159 1.836914 0.000000 0.000000 0.000000 -5.876256 -45.224305 -1.385985 -45.432926 -1.126145 24.738875 57.513048 3.021470 0.648307 -0.901349 -8.811501 -10.678064 -2.527579 0.140593 -0.151419 0.000000 0.000000 0.000000 -8.344537 -41.178920 -1.351025 -19.271626 -11.772298 -28.977948 53.249524 -9.510640 -7.362503 -26.000483 -10.724894 25.683483 -1.327879 1.022141 0.468850 0.000000 0.000000 0.000000 -5.903391 -41.266982 -0.478135 12.277883 7.268917 -0.230483 2.453620 1.133507 -0.787080 0.411865 0.148102 0.495843 0.000000 0.000000 0.000000 3.353780 0.817732 -0.302964 -4.636654 12.574087 1.266057 6.255541 17.727507 -7.065284 0.000000 0.000000 0.000000 3.744517 0.984277 -0.535965 1.559521 0.995307 -8.218329 -1.030925 -2.434871 -0.747889 -56.010714 4.339408 -48.254771 179.278477 -76.071464 179.766576 0.000000 0.000000 0.000000 4.003961 0.849864 -0.532349 3.758277 17.433737 -6.313233 -4.728944 -2.269521 1.969081 -55.430021 20.342025 70.412809 -179.255542 67.252836 177.794291 0.000000 0.000000 0.000000 
0.747246 82.458565 0.256676 0.000000 0.000000 0.000000 -6.211876 -45.158069 -0.752797 -45.590878 -0.568420 23.475840 57.284079 2.113611 1.487324 -0.371572 -10.268307 -11.223258 -2.676670 0.082132 -0.512147 0.000000 0.000000 0.000000 -8.623600 -41.312812 -0.682982 -20.069087 -11.762942 -28.850996 52.603641 -9.749872 -7.145570 -25.600977 -10.157543 24.837129 -1.945646 0.999199 0.716101 0.000000 0.000000 0.000000 -6.010819 -41.788952 0.216378 12.265200 7.235935 -0.208673 2.449988 1.080917 -0.752081 0.301172 0.206379 0.447192 0.000000 0.000000 0.000000 3.284426 0.777315 -0.292084 -3.573529 12.733542 0.850908 6.981056 18.134653 -7.610051 0.000000 0.000000 0.000000 3.720734 0.930380 -0.543078 1.623044 1.107701 -8.358616 -0.812953 -2.310570 -0.868986 -55.213514 4.252023 -48.536656 179.303107 -75.806364 179.824087 0.000000 0.000000 0.000000 4.035191 0.844153 -0.516845 3.794509 17.145346 -6.571617 -4.488796 -2.341771 1.968351 -56.061715 21.133792 72.230780 -179.280772 67.820199 177.809727 0.000000 0.000000 0.000000 
